<svg width="31" height="31" viewBox="0 0 31 31" fill="none" xmlns="http://www.w3.org/2000/svg">
<path d="M30.1311 5.10442C29.6898 4.65013 29.0872 4.38813 28.454 4.37526H23.3498C22.9631 4.37526 22.5921 4.5289 22.3186 4.80239C22.0452 5.07588 21.8915 5.44681 21.8915 5.83359C21.8915 6.22036 22.0452 6.5913 22.3186 6.86479C22.5921 7.13828 22.9631 7.29192 23.3498 7.29192H27.579L25.9019 17.5003H7.74568L6.57901 7.29192H11.6832C12.07 7.29192 12.4409 7.13828 12.7144 6.86479C12.9879 6.5913 13.1415 6.22036 13.1415 5.83359C13.1415 5.44681 12.9879 5.07588 12.7144 4.80239C12.4409 4.5289 12.07 4.37526 11.6832 4.37526H6.21443L5.92276 1.89609C5.85172 1.36783 5.59024 0.883687 5.18744 0.534599C4.78465 0.185511 4.26826 -0.00450036 3.73526 0.000255943H1.54776C1.18747 -0.00632977 0.836401 0.114361 0.556319 0.341094C0.276238 0.567827 0.0850921 0.886073 0.0165139 1.23984C-0.0152104 1.44885 -0.00111328 1.66226 0.0578286 1.86528C0.11677 2.0683 0.219148 2.25608 0.357867 2.41561C0.496586 2.57514 0.668331 2.7026 0.861201 2.78916C1.05407 2.87572 1.26346 2.91932 1.47485 2.91692H3.07901L5.41235 22.5315C4.63337 22.9865 4.01712 23.6748 3.65074 24.4991C3.28436 25.3235 3.18639 26.2422 3.37068 27.1253C3.54395 27.9572 3.95195 28.7222 4.54637 29.3295C5.1408 29.9369 5.89678 30.3612 6.72485 30.5523C7.77455 30.7589 8.86349 30.5865 9.79807 30.0658C10.7326 29.5451 11.4523 28.7099 11.829 27.7086H19.5582C19.8251 28.4635 20.2941 29.1307 20.9141 29.6375C21.5341 30.1443 22.2812 30.4712 23.0742 30.5826C23.8671 30.694 24.6754 30.5857 25.411 30.2694C26.1467 29.9531 26.7814 29.441 27.246 28.7888C27.7107 28.1367 27.9874 27.3696 28.0461 26.571C28.1049 25.7724 27.9433 24.973 27.579 24.2599C27.2148 23.5468 26.6618 22.9474 25.9804 22.5269C25.2989 22.1064 24.5151 21.881 23.7144 21.8753C22.8093 21.8894 21.9292 22.175 21.1882 22.695C20.4471 23.215 19.8793 23.9455 19.5582 24.7919H11.829C11.5531 24.0349 11.0735 23.3687 10.443 22.8669C9.81255 22.3651 9.05576 22.0472 8.2561 21.9482L8.11026 20.4169H26.5582C27.0786 20.4042 27.5774 20.2063 27.965 19.8588C28.3525 19.5113 28.6035 19.037 28.6728 18.5211L30.6415 7.00026C30.723 6.32608 30.5401 5.64655 30.1311 5.10442ZM23.7144 24.7919C24.0029 24.7919 24.2848 24.8774 24.5246 25.0377C24.7645 25.1979 24.9514 25.4257 25.0618 25.6922C25.1721 25.9587 25.201 26.2519 25.1447 26.5348C25.0885 26.8177 24.9496 27.0775 24.7456 27.2815C24.5417 27.4854 24.2818 27.6243 23.9989 27.6806C23.716 27.7368 23.4228 27.708 23.1564 27.5976C22.8899 27.4872 22.6621 27.3003 22.5019 27.0605C22.3416 26.8206 22.2561 26.5387 22.2561 26.2503C22.2561 25.8635 22.4097 25.4925 22.6832 25.2191C22.9567 24.9456 23.3277 24.7919 23.7144 24.7919ZM9.1311 26.2503C9.1311 26.5387 9.04557 26.8206 8.88532 27.0605C8.72508 27.3003 8.49732 27.4872 8.23084 27.5976C7.96437 27.708 7.67115 27.7368 7.38826 27.6806C7.10537 27.6243 6.84552 27.4854 6.64157 27.2815C6.43762 27.0775 6.29872 26.8177 6.24245 26.5348C6.18618 26.2519 6.21506 25.9587 6.32544 25.6922C6.43582 25.4257 6.62274 25.1979 6.86256 25.0377C7.10238 24.8774 7.38433 24.7919 7.67276 24.7919C8.05954 24.7919 8.43047 24.9456 8.70396 25.2191C8.97745 25.4925 9.1311 25.8635 9.1311 26.2503Z" fill="#FF4646"/>
<path d="M12.704 10.0628C12.4921 10.3554 12.3906 10.7135 12.4173 11.0738C12.444 11.4341 12.5972 11.7733 12.8498 12.0315L16.4956 15.6044C16.6254 15.7459 16.7832 15.8588 16.9589 15.9361C17.1346 16.0133 17.3245 16.0532 17.5165 16.0532C17.7084 16.0532 17.8983 16.0133 18.074 15.9361C18.2498 15.8588 18.4075 15.7459 18.5373 15.6044L22.1831 12.0315C22.4358 11.7733 22.589 11.4341 22.6157 11.0738C22.6424 10.7135 22.5408 10.3554 22.329 10.0628C22.2109 9.88703 22.0542 9.74068 21.8708 9.63495C21.6874 9.52922 21.4822 9.46692 21.271 9.45284C21.0598 9.43876 20.8482 9.47327 20.6524 9.55372C20.4565 9.63417 20.2818 9.75842 20.1415 9.91693L18.9748 11.0836V4.37526C18.9748 3.98849 18.8212 3.61756 18.5477 3.34407C18.2742 3.07058 17.9032 2.91693 17.5165 2.91693C17.1297 2.91693 16.7588 3.07058 16.4853 3.34407C16.2118 3.61756 16.0581 3.98849 16.0581 4.37526V11.0836L14.8915 9.91693C14.7512 9.75842 14.5764 9.63417 14.3806 9.55372C14.1848 9.47327 13.9731 9.43876 13.7619 9.45284C13.5507 9.46692 13.3455 9.52922 13.1621 9.63495C12.9787 9.74068 12.822 9.88703 12.704 10.0628Z" fill="#FF4646"/>
</svg>
