<svg width="828" height="850" viewBox="0 0 828 850" fill="none" xmlns="http://www.w3.org/2000/svg">
<path d="M24.256 793.088H65.856V812.032H24.256V793.088ZM26.048 828.416H72.896V848H0.96V758.4H71.232V777.984H26.048V828.416ZM97.2 848V758.4H118.064L155.184 819.328H144.176L180.272 758.4H201.136L201.392 848H178.096L177.84 793.856H181.808L154.8 839.168H143.536L115.76 793.856H120.624V848H97.2ZM229.565 848V758.4H270.525C278.717 758.4 285.757 759.723 291.645 762.368C297.618 765.013 302.226 768.853 305.469 773.888C308.712 778.837 310.333 784.725 310.333 791.552C310.333 798.293 308.712 804.139 305.469 809.088C302.226 814.037 297.618 817.877 291.645 820.608C285.757 823.253 278.717 824.576 270.525 824.576H243.645L254.909 813.568V848H229.565ZM254.909 816.256L243.645 804.608H268.989C274.28 804.608 278.205 803.456 280.765 801.152C283.41 798.848 284.733 795.648 284.733 791.552C284.733 787.371 283.41 784.128 280.765 781.824C278.205 779.52 274.28 778.368 268.989 778.368H243.645L254.909 766.72V816.256ZM349.752 848V778.496H322.232V758.4H402.488V778.496H375.096V848H349.752ZM442.701 848V810.112L448.589 825.344L408.525 758.4H435.277L464.205 806.912H448.717L477.773 758.4H502.349L462.413 825.344L468.045 810.112V848H442.701ZM598.013 849.792C590.674 849.792 583.592 848.896 576.765 847.104C570.024 845.227 564.52 842.837 560.253 839.936L568.573 821.248C572.584 823.808 577.192 825.941 582.397 827.648C587.688 829.269 592.936 830.08 598.141 830.08C601.64 830.08 604.456 829.781 606.589 829.184C608.722 828.501 610.258 827.648 611.197 826.624C612.221 825.515 612.733 824.235 612.733 822.784C612.733 820.736 611.794 819.115 609.917 817.92C608.04 816.725 605.608 815.744 602.621 814.976C599.634 814.208 596.306 813.44 592.637 812.672C589.053 811.904 585.426 810.923 581.757 809.728C578.173 808.533 574.888 806.997 571.901 805.12C568.914 803.157 566.482 800.64 564.605 797.568C562.728 794.411 561.789 790.443 561.789 785.664C561.789 780.288 563.24 775.424 566.141 771.072C569.128 766.72 573.565 763.221 579.453 760.576C585.341 757.931 592.68 756.608 601.469 756.608C607.357 756.608 613.117 757.291 618.749 758.656C624.466 759.936 629.544 761.856 633.981 764.416L626.173 783.232C621.906 780.928 617.682 779.221 613.501 778.112C609.32 776.917 605.266 776.32 601.341 776.32C597.842 776.32 595.026 776.704 592.893 777.472C590.76 778.155 589.224 779.093 588.285 780.288C587.346 781.483 586.877 782.848 586.877 784.384C586.877 786.347 587.773 787.925 589.565 789.12C591.442 790.229 593.874 791.168 596.861 791.936C599.933 792.619 603.261 793.344 606.845 794.112C610.514 794.88 614.141 795.861 617.725 797.056C621.394 798.165 624.722 799.701 627.709 801.664C630.696 803.541 633.085 806.059 634.877 809.216C636.754 812.288 637.693 816.171 637.693 820.864C637.693 826.069 636.2 830.891 633.213 835.328C630.312 839.68 625.917 843.179 620.029 845.824C614.226 848.469 606.888 849.792 598.013 849.792ZM682.936 793.088H724.536V812.032H682.936V793.088ZM684.728 828.416H731.576V848H659.64V758.4H729.912V777.984H684.728V828.416ZM774.952 848V778.496H747.432V758.4H827.688V778.496H800.296V848H774.952Z" fill="#FF4646"/>
<path d="M751.333 116.667C741.247 106.283 727.473 100.294 713 100H204.667L198 43.3333C196.376 31.2588 190.399 20.1927 181.193 12.2136C171.986 4.23441 160.183 -0.108707 148 9.00494e-06H96.3333C87.4928 9.00494e-06 79.0143 3.5119 72.7631 9.76311C66.5119 16.0143 63 24.4928 63 33.3333C63 42.1739 66.5119 50.6524 72.7631 56.9036C79.0143 63.1548 87.4928 66.6667 96.3333 66.6667H133L186.333 515C171.563 523.722 159.331 536.156 150.853 551.066C142.374 565.977 137.943 582.847 138 600C138 626.522 148.536 651.957 167.289 670.711C186.043 689.464 211.478 700 238 700C258.69 699.677 278.806 693.15 295.743 681.263C312.681 669.377 325.66 652.68 333 633.333H509.667C517.006 652.68 529.986 669.377 546.923 681.263C563.861 693.15 583.977 699.677 604.667 700C631.188 700 656.624 689.464 675.377 670.711C694.131 651.957 704.667 626.522 704.667 600C704.667 573.478 694.131 548.043 675.377 529.289C656.624 510.536 631.188 500 604.667 500C583.977 500.323 563.861 506.85 546.923 518.737C529.986 530.623 517.006 547.32 509.667 566.667H333C326.693 549.362 315.73 534.136 301.32 522.666C286.909 511.197 269.611 503.93 251.333 501.667L248 466.667H669.667C681.561 466.376 692.963 461.853 701.822 453.91C710.681 445.967 716.417 435.126 718 423.333L763 160C764.863 144.59 760.681 129.058 751.333 116.667ZM638 600C638 606.593 636.045 613.037 632.382 618.519C628.72 624.001 623.514 628.273 617.423 630.796C611.332 633.319 604.63 633.979 598.164 632.693C591.698 631.407 585.758 628.232 581.096 623.57C576.435 618.908 573.26 612.969 571.974 606.503C570.688 600.037 571.348 593.335 573.871 587.244C576.394 581.153 580.666 575.947 586.148 572.284C591.629 568.622 598.074 566.667 604.667 566.667C613.507 566.667 621.986 570.179 628.237 576.43C634.488 582.681 638 591.159 638 600ZM271.333 600C271.333 606.593 269.378 613.037 265.716 618.519C262.053 624.001 256.847 628.273 250.756 630.796C244.665 633.319 237.963 633.979 231.497 632.693C225.031 631.407 219.092 628.232 214.43 623.57C209.768 618.908 206.593 612.969 205.307 606.503C204.021 600.037 204.681 593.335 207.204 587.244C209.727 581.153 213.999 575.947 219.481 572.284C224.963 568.622 231.407 566.667 238 566.667C246.841 566.667 255.319 570.179 261.57 576.43C267.821 582.681 271.333 591.159 271.333 600ZM654.667 400H239.667L213 166.667H693L654.667 400Z" fill="#FF4646"/>
</svg>
