<svg width="827" height="834" viewBox="0 0 827 834" fill="none" xmlns="http://www.w3.org/2000/svg">
<path d="M600.5 640.007C621.887 620.997 654.113 620.997 675.5 640.007C690.03 652.92 713 642.607 713 623.167V56.8397C713 37.3987 690.03 27.0837 675.5 39.9997C654.113 59.0097 621.887 59.0097 600.5 39.9997C579.113 20.9897 546.887 20.9897 525.5 39.9997C504.113 59.0097 471.887 59.0097 450.5 39.9997C429.113 20.9897 396.887 20.9897 375.5 39.9997C354.113 59.0097 321.886 59.0097 300.5 39.9997C279.114 20.9897 246.886 20.9897 225.5 39.9997C204.114 59.0097 171.886 59.0097 150.5 39.9997C135.97 27.0837 113 37.3987 113 56.8397V623.167C113 642.607 135.97 652.92 150.5 640.007C171.886 620.997 204.114 620.997 225.5 640.007C246.886 659.017 279.114 659.017 300.5 640.007C321.886 620.997 354.113 620.997 375.5 640.007C396.887 659.017 429.113 659.017 450.5 640.007C471.887 620.997 504.113 620.997 525.5 640.007C546.887 659.017 579.113 659.017 600.5 640.007Z" stroke="white" stroke-width="50"/>
<path d="M263 456.667H563" stroke="white" stroke-width="50" stroke-linecap="round"/>
<path d="M263 340H563" stroke="white" stroke-width="50" stroke-linecap="round"/>
<path d="M263 223.333H563" stroke="white" stroke-width="50" stroke-linecap="round"/>
<path d="M23.296 776.48H64.896V795.424H23.296V776.48ZM25.088 811.808H71.936V831.392H0V741.792H70.272V761.376H25.088V811.808ZM96.24 831.392V741.792H117.104L154.224 802.72H143.216L179.312 741.792H200.176L200.432 831.392H177.136L176.88 777.248H180.848L153.84 822.56H142.576L114.8 777.248H119.664V831.392H96.24ZM228.605 831.392V741.792H269.565C277.757 741.792 284.797 743.115 290.685 745.76C296.658 748.405 301.266 752.245 304.509 757.28C307.752 762.229 309.373 768.117 309.373 774.944C309.373 781.685 307.752 787.531 304.509 792.48C301.266 797.429 296.658 801.269 290.685 804C284.797 806.645 277.757 807.968 269.565 807.968H242.685L253.949 796.96V831.392H228.605ZM253.949 799.648L242.685 788H268.029C273.32 788 277.245 786.848 279.805 784.544C282.45 782.24 283.773 779.04 283.773 774.944C283.773 770.763 282.45 767.52 279.805 765.216C277.245 762.912 273.32 761.76 268.029 761.76H242.685L253.949 750.112V799.648ZM348.792 831.392V761.888H321.272V741.792H401.528V761.888H374.136V831.392H348.792ZM441.741 831.392V793.504L447.629 808.736L407.565 741.792H434.317L463.245 790.304H447.757L476.813 741.792H501.389L461.453 808.736L467.085 793.504V831.392H441.741ZM597.053 833.184C589.714 833.184 582.632 832.288 575.805 830.496C569.064 828.619 563.56 826.229 559.293 823.328L567.613 804.64C571.624 807.2 576.232 809.333 581.437 811.04C586.728 812.661 591.976 813.472 597.181 813.472C600.68 813.472 603.496 813.173 605.629 812.576C607.762 811.893 609.298 811.04 610.237 810.016C611.261 808.907 611.773 807.627 611.773 806.176C611.773 804.128 610.834 802.507 608.957 801.312C607.08 800.117 604.648 799.136 601.661 798.368C598.674 797.6 595.346 796.832 591.677 796.064C588.093 795.296 584.466 794.315 580.797 793.12C577.213 791.925 573.928 790.389 570.941 788.512C567.954 786.549 565.522 784.032 563.645 780.96C561.768 777.803 560.829 773.835 560.829 769.056C560.829 763.68 562.28 758.816 565.181 754.464C568.168 750.112 572.605 746.613 578.493 743.968C584.381 741.323 591.72 740 600.509 740C606.397 740 612.157 740.683 617.789 742.048C623.506 743.328 628.584 745.248 633.021 747.808L625.213 766.624C620.946 764.32 616.722 762.613 612.541 761.504C608.36 760.309 604.306 759.712 600.381 759.712C596.882 759.712 594.066 760.096 591.933 760.864C589.8 761.547 588.264 762.485 587.325 763.68C586.386 764.875 585.917 766.24 585.917 767.776C585.917 769.739 586.813 771.317 588.605 772.512C590.482 773.621 592.914 774.56 595.901 775.328C598.973 776.011 602.301 776.736 605.885 777.504C609.554 778.272 613.181 779.253 616.765 780.448C620.434 781.557 623.762 783.093 626.749 785.056C629.736 786.933 632.125 789.451 633.917 792.608C635.794 795.68 636.733 799.563 636.733 804.256C636.733 809.461 635.24 814.283 632.253 818.72C629.352 823.072 624.957 826.571 619.069 829.216C613.266 831.861 605.928 833.184 597.053 833.184ZM681.976 776.48H723.576V795.424H681.976V776.48ZM683.768 811.808H730.616V831.392H658.68V741.792H728.952V761.376H683.768V811.808ZM773.992 831.392V761.888H746.472V741.792H826.728V761.888H799.336V831.392H773.992Z" fill="white"/>
</svg>
