<svg width="30" height="30" viewBox="0 0 20 20" fill="none" xmlns="http://www.w3.org/2000/svg">
<circle cx="10" cy="10" r="10" fill="white"/>
<path d="M15.9897 5.86385C15.8108 5.67978 15.5665 5.57363 15.3097 5.56841H6.2933L6.17505 4.56391C6.14624 4.34987 6.04024 4.15371 5.87693 4.01227C5.71363 3.87083 5.50427 3.79384 5.28819 3.79577H4.37176C4.21495 3.79577 4.06457 3.85802 3.95369 3.96883C3.84281 4.07964 3.78052 4.22994 3.78052 4.38665C3.78052 4.54336 3.84281 4.69365 3.95369 4.80446C4.06457 4.91527 4.21495 4.97753 4.37176 4.97753H5.02213L5.96811 12.9249C5.70613 13.0795 5.48917 13.2999 5.33878 13.5642C5.18839 13.8285 5.1098 14.1276 5.11081 14.4316C5.11081 14.9018 5.29769 15.3526 5.63033 15.6851C5.96296 16.0175 6.41412 16.2043 6.88454 16.2043C7.25152 16.1985 7.60832 16.0828 7.90875 15.8721C8.20918 15.6614 8.43939 15.3655 8.56958 15.0225H11.7032C11.8334 15.3655 12.0636 15.6614 12.364 15.8721C12.6644 16.0828 13.0212 16.1985 13.3882 16.2043C13.8586 16.2043 14.3098 16.0175 14.6424 15.6851C14.9751 15.3526 15.1619 14.9018 15.1619 14.4316C15.1619 13.9615 14.9751 13.5106 14.6424 13.1782C14.3098 12.8457 13.8586 12.659 13.3882 12.659C13.0212 12.6647 12.6644 12.7804 12.364 12.9911C12.0636 13.2018 11.8334 13.4978 11.7032 13.8407H8.56958C8.45772 13.534 8.26326 13.2641 8.00766 13.0608C7.75206 12.8575 7.44524 12.7286 7.12104 12.6885L7.06191 12.0681H14.5411C14.7521 12.0629 14.9543 11.9828 15.1115 11.842C15.2686 11.7012 15.3704 11.509 15.3984 11.3L16.1966 6.63199C16.2296 6.35883 16.1555 6.08351 15.9897 5.86385ZM13.9794 14.4316C13.9794 14.5485 13.9448 14.6627 13.8798 14.7599C13.8148 14.8571 13.7225 14.9328 13.6145 14.9775C13.5064 15.0222 13.3875 15.034 13.2729 15.0112C13.1582 14.9884 13.0528 14.9321 12.9701 14.8494C12.8874 14.7668 12.8311 14.6615 12.8083 14.5469C12.7855 14.4323 12.7972 14.3135 12.842 14.2055C12.8867 14.0975 12.9625 14.0053 13.0597 13.9403C13.157 13.8754 13.2713 13.8407 13.3882 13.8407C13.545 13.8407 13.6954 13.903 13.8063 14.0138C13.9172 14.1246 13.9794 14.2749 13.9794 14.4316ZM7.47578 14.4316C7.47578 14.5485 7.44111 14.6627 7.37614 14.7599C7.31117 14.8571 7.21883 14.9328 7.1108 14.9775C7.00276 15.0222 6.88388 15.034 6.76919 15.0112C6.6545 14.9884 6.54915 14.9321 6.46647 14.8494C6.38378 14.7668 6.32747 14.6615 6.30466 14.5469C6.28184 14.4323 6.29355 14.3135 6.3383 14.2055C6.38305 14.0975 6.45883 14.0053 6.55606 13.9403C6.65329 13.8754 6.7676 13.8407 6.88454 13.8407C7.04135 13.8407 7.19173 13.903 7.30261 14.0138C7.41349 14.1246 7.47578 14.2749 7.47578 14.4316ZM14.2751 10.8863H6.9141L6.44111 6.75017H14.955L14.2751 10.8863Z" fill="#FF4646"/>
</svg>
