<svg width="701" height="700" viewBox="0 0 701 700" fill="none" xmlns="http://www.w3.org/2000/svg">
<path d="M688.333 116.667C678.247 106.283 664.473 100.294 650 100H141.667L135 43.3333C133.376 31.2588 127.399 20.1927 118.193 12.2136C108.986 4.23444 97.183 -0.108676 85 3.9537e-05H33.3333C24.4928 3.9537e-05 16.0143 3.51193 9.7631 9.76314C3.5119 16.0143 0 24.4928 0 33.3333C0 42.1739 3.5119 50.6524 9.7631 56.9036C16.0143 63.1548 24.4928 66.6667 33.3333 66.6667H70L123.333 515C108.563 523.722 96.331 536.156 87.853 551.066C79.374 565.977 74.943 582.847 75 600C75 626.522 85.536 651.957 104.289 670.711C123.043 689.464 148.478 700 175 700C195.69 699.677 215.806 693.15 232.743 681.263C249.681 669.377 262.66 652.68 270 633.333H446.667C454.006 652.68 466.986 669.377 483.923 681.263C500.861 693.15 520.977 699.677 541.667 700C568.188 700 593.624 689.464 612.377 670.711C631.131 651.957 641.667 626.522 641.667 600C641.667 573.478 631.131 548.043 612.377 529.289C593.624 510.536 568.188 500 541.667 500C520.977 500.323 500.861 506.85 483.923 518.737C466.986 530.623 454.006 547.32 446.667 566.667H270C263.693 549.362 252.73 534.136 238.32 522.666C223.909 511.197 206.611 503.93 188.333 501.667L185 466.667H606.667C618.561 466.376 629.963 461.853 638.822 453.91C647.681 445.967 653.417 435.126 655 423.333L700 160C701.863 144.59 697.681 129.058 688.333 116.667ZM575 600C575 606.593 573.045 613.037 569.382 618.519C565.72 624.001 560.514 628.273 554.423 630.796C548.332 633.319 541.63 633.979 535.164 632.693C528.698 631.407 522.758 628.232 518.096 623.57C513.435 618.908 510.26 612.969 508.974 606.503C507.688 600.037 508.348 593.335 510.871 587.244C513.394 581.153 517.666 575.947 523.148 572.284C528.629 568.622 535.074 566.667 541.667 566.667C550.507 566.667 558.986 570.179 565.237 576.43C571.488 582.681 575 591.159 575 600ZM208.333 600C208.333 606.593 206.378 613.037 202.716 618.519C199.053 624.001 193.847 628.273 187.756 630.796C181.665 633.319 174.963 633.979 168.497 632.693C162.031 631.407 156.092 628.232 151.43 623.57C146.768 618.908 143.593 612.969 142.307 606.503C141.021 600.037 141.681 593.335 144.204 587.244C146.727 581.153 150.999 575.947 156.481 572.284C161.963 568.622 168.407 566.667 175 566.667C183.841 566.667 192.319 570.179 198.57 576.43C204.821 582.681 208.333 591.159 208.333 600ZM591.667 400H176.667L150 166.667H630L591.667 400Z" fill="#FF4646"/>
</svg>
