<svg width="660" height="660" viewBox="0 0 660 660" fill="none" xmlns="http://www.w3.org/2000/svg">
<path d="M330 196.667V630M330 196.667H180C157.899 196.667 136.702 187.887 121.074 172.259C105.446 156.631 96.6667 135.435 96.6667 113.333C96.6667 91.232 105.446 70.0357 121.074 54.4077C136.702 38.7797 157.899 30 180 30C296.667 30 330 196.667 330 196.667ZM330 196.667H480C502.1 196.667 523.297 187.887 538.927 172.259C554.553 156.631 563.333 135.435 563.333 113.333C563.333 91.232 554.553 70.0357 538.927 54.4077C523.297 38.7797 502.1 30 480 30C363.333 30 330 196.667 330 196.667ZM30 396.667H630M136.667 630H523.333C560.67 630 579.34 630 593.6 622.733C606.143 616.343 616.343 606.143 622.733 593.6C630 579.34 630 560.67 630 523.333V303.333C630 265.997 630 247.328 622.733 233.067C616.343 220.523 606.143 210.324 593.6 203.933C579.34 196.667 560.67 196.667 523.333 196.667H136.667C99.33 196.667 80.6613 196.667 66.4007 203.933C53.8563 210.324 43.6577 220.523 37.2663 233.067C30 247.328 30 265.997 30 303.333V523.333C30 560.67 30 579.34 37.2663 593.6C43.6577 606.143 53.8563 616.343 66.4007 622.733C80.6613 630 99.3297 630 136.667 630Z" stroke="#FF4646" stroke-width="60" stroke-linecap="round" stroke-linejoin="round"/>
</svg>
