<svg width="607" height="669" viewBox="0 0 607 669" fill="none" xmlns="http://www.w3.org/2000/svg">
<path d="M516.222 638.5H90.7778C57.35 638.5 30 611.15 30 577.722V152.278C30 118.85 57.35 91.5 90.7778 91.5H516.222C549.65 91.5 577 118.85 577 152.278V577.722C577 611.15 549.65 638.5 516.222 638.5Z" stroke="#FF4646" stroke-width="60" stroke-linecap="round" stroke-linejoin="round"/>
<path d="M425.056 30.7222V91.5" stroke="#FF4646" stroke-width="60" stroke-linecap="round" stroke-linejoin="round"/>
<path d="M181.944 30.7222V91.5" stroke="#FF4646" stroke-width="60" stroke-linecap="round" stroke-linejoin="round"/>
<path d="M303.5 395.389C353.85 395.389 394.667 354.572 394.667 304.222C394.667 253.872 353.85 213.056 303.5 213.056C253.15 213.056 212.333 253.872 212.333 304.222C212.333 354.572 253.15 395.389 303.5 395.389Z" stroke="#FF4646" stroke-width="60" stroke-linecap="round" stroke-linejoin="round"/>
<path d="M455.445 532.139C412.9 501.75 361.239 486.556 303.5 486.556C245.761 486.556 194.1 504.789 151.556 532.139" stroke="#FF4646" stroke-width="60" stroke-linecap="round" stroke-linejoin="round"/>
</svg>
