<svg width="660" height="690" viewBox="0 0 660 690" fill="none" xmlns="http://www.w3.org/2000/svg">
<path d="M517.5 645.007C538.887 625.997 571.113 625.997 592.5 645.007C607.03 657.92 630 647.607 630 628.167V61.8397C630 42.3987 607.03 32.0837 592.5 44.9997C571.113 64.0097 538.887 64.0097 517.5 44.9997C496.113 25.9897 463.887 25.9897 442.5 44.9997C421.113 64.0097 388.887 64.0097 367.5 44.9997C346.113 25.9897 313.887 25.9897 292.5 44.9997C271.113 64.0097 238.886 64.0097 217.5 44.9997C196.114 25.9897 163.886 25.9897 142.5 44.9997C121.114 64.0097 88.8863 64.0097 67.5 44.9997C52.9697 32.0837 30 42.3987 30 61.8397V628.167C30 647.607 52.9697 657.92 67.5 645.007C88.8863 625.997 121.114 625.997 142.5 645.007C163.886 664.017 196.114 664.017 217.5 645.007C238.886 625.997 271.113 625.997 292.5 645.007C313.887 664.017 346.113 664.017 367.5 645.007C388.887 625.997 421.113 625.997 442.5 645.007C463.887 664.017 496.113 664.017 517.5 645.007Z" stroke="#FF4646" stroke-width="60"/>
<path d="M180 461.667H480" stroke="#FF4646" stroke-width="60" stroke-linecap="round"/>
<path d="M180 345H480" stroke="#FF4646" stroke-width="60" stroke-linecap="round"/>
<path d="M180 228.333H480" stroke="#FF4646" stroke-width="60" stroke-linecap="round"/>
</svg>
