<svg width="56" height="56" viewBox="0 0 56 56" fill="none" xmlns="http://www.w3.org/2000/svg">
<path d="M12.2993 28.1406C12.2921 28.0646 12.278 27.9872 12.2479 27.9056C12.145 27.6257 11.9575 27.1983 12.0429 26.8895C12.1096 26.6485 12.4928 26.6966 12.7214 26.7125C13.8169 26.7902 14.0496 25.0929 12.9448 25.0143C12.0947 24.9541 11.1929 25.079 10.6696 25.8312C10.1412 26.5918 10.3204 27.5662 10.6053 28.3885C10.6124 28.5221 10.6466 28.6586 10.7236 28.7941C11.1905 29.6138 11.5299 30.5245 11.6153 31.4664C11.7035 32.4363 11.075 32.267 10.3212 31.9907C9.28887 31.6119 8.6291 33.1933 9.66899 33.5743C11.0739 34.0898 12.8451 34.0867 13.2474 32.3194C13.5691 30.9114 12.972 29.3928 12.2993 28.1406Z" fill="white"/>
<path d="M17.9138 26.2382C17.7394 25.2872 16.4078 25.3333 16.2212 26.0964C15.3231 28.5231 14.4404 30.9559 13.5419 33.3832C13.1605 34.4147 14.7416 35.0738 15.1259 34.0354C15.2491 33.7033 15.3699 33.3708 15.4927 33.0384C15.9605 33.1038 16.4282 33.167 16.899 33.2025C17.0018 33.2104 17.1027 33.1997 17.1989 33.177C17.2381 33.5676 17.2866 33.9569 17.3155 34.3492C17.3973 35.4528 19.0957 35.2325 19.0142 34.1344C18.817 31.479 18.3935 28.8555 17.9138 26.2382ZM16.0975 31.3922C16.3148 30.8005 16.5333 30.209 16.7497 29.6178C16.8463 30.2413 16.9305 30.8673 17.0117 31.4932C16.7063 31.4671 16.4017 31.4324 16.0975 31.3922Z" fill="white"/>
<path d="M22.0438 33.9564C21.7892 33.9626 21.4805 33.9395 21.1799 33.8932C21.1579 31.5736 21.3376 29.2649 21.5872 26.9592C21.7058 25.8636 20.0082 25.6349 19.889 26.7359C19.6059 29.3469 19.4223 31.9561 19.4801 34.5839C19.4835 34.7409 19.5236 34.8678 19.585 34.9726C19.6715 35.1565 19.8156 35.309 20.016 35.3682C20.757 35.5878 21.4868 35.6745 22.2584 35.6548C22.7256 35.6426 23.0547 35.1259 23.0003 34.6981C22.9378 34.2009 22.5101 33.9443 22.0438 33.9564Z" fill="white"/>
<path d="M26.4616 33.4993C26.3134 33.5029 26.091 33.4854 25.8858 33.4607C25.8023 33.4504 25.7175 33.4343 25.6332 33.4188C25.6154 32.8871 25.6206 32.3578 25.6369 31.8293C25.8374 31.8487 26.0385 31.864 26.2402 31.8686C26.7055 31.8798 27.1357 31.6314 27.201 31.1317C27.2565 30.706 26.931 30.1822 26.4635 30.171C26.2263 30.1652 25.9899 30.1445 25.7542 30.1193C25.8162 29.524 25.8932 28.9293 26.0033 28.3374C26.3248 28.4 26.6497 28.4446 26.98 28.47C27.4443 28.5059 27.8777 28.2144 27.9408 27.7329C27.9989 27.2892 27.6691 26.8081 27.2037 26.7722C26.7153 26.7347 26.223 26.6722 25.7529 26.5317C25.4557 26.4425 25.146 26.4758 24.9145 26.6424C24.7099 26.753 24.5431 26.9432 24.4775 27.2246C23.9477 29.5125 23.8319 31.832 23.9547 34.1715C23.9725 34.5107 24.1458 34.724 24.3744 34.8255C24.4236 34.8569 24.4764 34.8824 24.5343 34.8998C25.2458 35.1135 25.9336 35.2172 26.6766 35.1992C27.1441 35.1878 27.4725 34.67 27.4185 34.2425C27.3554 33.7433 26.928 33.488 26.4616 33.4993Z" fill="white"/>
<path d="M54.0407 26.0008C54.1666 23.4357 51.7031 22.0871 49.5769 21.4443C48.3519 21.0739 47.0446 20.7731 45.7751 20.6058C41.7007 20.0676 33.458 19.5298 31.0637 23.8345C23.7292 23.0361 15.5175 21.9501 8.98413 21.0404C8.82936 21.0189 8.6944 21.0375 8.5761 21.0801C8.24558 21.1264 7.95626 21.3507 7.92316 21.7907C7.83887 22.9214 7.70571 24.0462 7.54843 25.1691C7.54621 25.178 7.5423 25.1861 7.54027 25.1956C6.88983 28.3426 6.32156 31.5038 5.78892 34.6725C5.77257 34.7683 5.77567 34.8554 5.78635 34.9371C5.70806 35.2939 5.84035 35.6774 6.2937 35.8326C15.0274 38.8254 27.231 39.3692 36.3573 39.365C36.6684 39.365 36.8698 39.2275 36.9797 39.0339C37.1053 38.9197 37.2008 38.7625 37.2428 38.5582C37.4988 37.3144 37.6612 36.0653 37.7755 34.8128C38.7172 34.8339 39.6547 34.7678 40.4996 34.6695C43.1896 34.3567 45.849 33.6808 48.2639 32.4342C49.9788 31.5483 52.2086 30.0701 53.332 28.1952C53.7404 27.513 54.0027 26.7784 54.0407 26.0008ZM35.6631 37.6658C27.2143 37.6695 15.6709 37.079 7.56383 34.4463C8.0354 31.6578 8.53807 28.8759 9.10063 26.1044C9.14081 26.024 9.17359 25.9356 9.18871 25.8315C9.33431 24.8376 9.4495 23.8408 9.54249 22.8415C17.5377 23.9399 28.3771 25.3719 36.4145 26.0942C36.3386 28.4857 36.333 30.8761 36.1777 33.2553C35.7105 33.172 35.2693 33.046 34.8727 32.8662C35.1315 32.385 35.2731 31.8564 35.2407 31.3459C35.2366 31.2755 35.2285 31.206 35.2182 31.1373C34.9055 29.1009 31.9983 28.1109 30.2957 29.0709C29.4322 29.5575 28.7562 31.0998 29.0375 32.0893C29.3701 33.2582 30.5148 34.365 31.7108 34.6095C32.5022 34.7714 33.2927 34.4982 33.9254 33.9984C34.5699 34.3263 35.2998 34.5368 36.0659 34.6616C35.9715 35.6661 35.8437 36.6679 35.6631 37.6658ZM33.0666 30.6161C33.3066 30.7671 33.4925 31.0115 33.5657 31.3846C33.5972 31.546 33.5938 31.6929 33.5659 31.8279C33.3272 31.4929 33.1554 31.0924 33.0666 30.6161ZM32.3897 32.745C31.8804 32.8156 31.333 32.6879 31.0218 32.3291C30.8275 32.1054 30.7424 31.8823 30.7388 31.6721C30.7316 31.2291 31.088 30.8425 31.5505 30.6221C31.5519 30.6373 31.5503 30.651 31.5527 30.6669C31.678 31.5143 31.9737 32.196 32.3897 32.745ZM52.1447 27.275C49.5995 30.6464 46.226 32.0098 42.2255 32.8636C41.1276 33.0978 39.4842 33.3933 37.8861 33.3931C38.0484 30.7803 38.0336 28.1537 38.1379 25.5277C38.1417 25.4319 38.128 25.3454 38.1073 25.2628C38.1092 24.8796 37.8852 24.5109 37.3877 24.4668C35.916 24.3361 34.3581 24.1832 32.7494 24.015C35.0056 21.3102 41.361 21.7432 44.2569 21.9569C46.9921 22.1589 54.1574 23.0042 52.1701 27.2476C52.162 27.2574 52.1529 27.2644 52.1447 27.275Z" fill="white"/>
</svg>
