<svg width="800" height="800" viewBox="0 0 800 800" fill="none" xmlns="http://www.w3.org/2000/svg">
<g clip-path="url(#clip0_84_713)">
<path d="M424.945 236.616C418.787 233.329 411.137 235.657 407.851 241.808C395.065 265.752 383.878 277.215 378.345 281.915C373.029 286.433 372.382 294.405 376.901 299.721C379.4 302.662 382.953 304.172 386.531 304.172C389.423 304.172 392.328 303.185 394.706 301.166C403.132 294.004 416.118 279.957 430.136 253.71C433.423 247.555 431.098 239.902 424.945 236.616Z" fill="#FF4646"/>
<path d="M396.557 53.6376C389.82 51.8204 382.889 55.7985 381.067 62.5329C379.246 69.2673 383.229 76.2017 389.962 78.0236C418.184 85.6549 437.895 111.402 437.895 140.632C437.895 153.014 434.397 176.105 424.576 203.775C422.243 210.349 425.681 217.569 432.258 219.904C433.654 220.399 435.078 220.635 436.481 220.635C441.678 220.635 446.55 217.4 448.386 212.224C457.636 186.155 463.158 159.394 463.158 140.632C463.159 100.016 435.772 64.2423 396.557 53.6376Z" fill="#FF4646"/>
<path d="M474.706 277.515C498.384 233.172 513.686 179.444 513.686 140.632C513.684 63.0876 450.598 0 373.052 0C295.507 0 232.421 63.0876 232.421 140.632C232.421 179.444 247.723 233.172 271.402 277.513C294.012 319.848 320.818 347.412 348.713 357.637L303.034 408.391C299.698 412.101 298.854 417.424 300.884 421.982C302.913 426.538 307.435 429.473 312.424 429.473H360.423V787.369C360.423 794.347 366.076 800 373.054 800C380.032 800 385.685 794.345 385.685 787.369V429.474H433.685C438.674 429.474 443.196 426.538 445.226 421.984C447.256 417.426 446.412 412.102 443.076 408.393L397.396 357.638C425.29 347.413 452.096 319.849 474.706 277.515ZM405.323 404.212H340.784L373.052 368.357L405.323 404.212ZM373.052 336.843C346.787 336.843 317.86 310.88 293.685 265.613C272.151 225.293 257.683 175.064 257.683 140.633C257.683 77.0189 309.438 25.2641 373.052 25.2641C436.667 25.2641 488.421 77.0189 488.421 140.633C488.421 175.064 473.954 225.294 452.42 265.613C428.245 310.88 399.318 336.843 373.052 336.843Z" fill="#FF4646"/>
<path d="M245.652 580.675C269.331 536.331 284.632 482.603 284.632 443.79C284.632 366.246 221.545 303.158 144.001 303.158C66.4568 303.158 3.36914 366.246 3.36914 443.79C3.36914 482.603 18.6707 536.331 42.3505 580.672C64.9599 623.008 91.7662 650.57 119.662 660.795L73.9802 711.548C70.6443 715.256 69.8005 720.581 71.8302 725.139C73.8599 729.695 78.3818 732.63 83.3709 732.63H131.369V787.367C131.369 794.345 137.023 799.998 144.001 799.998C150.979 799.998 156.632 794.345 156.632 787.367V732.634H204.632C209.621 732.634 214.141 729.698 216.173 725.144C218.202 720.586 217.359 715.262 214.023 711.553L168.343 660.8C196.237 650.572 223.043 623.009 245.652 580.675ZM176.269 707.37H111.73L143.999 671.515L176.269 707.37ZM144.001 640.001C117.735 640.001 88.8068 614.039 64.6333 568.771C43.0989 528.451 28.6317 478.223 28.6317 443.792C28.6317 380.177 80.3865 328.423 144.001 328.423C207.615 328.423 259.37 380.177 259.37 443.792C259.37 478.223 244.902 528.453 223.368 568.771C199.193 614.039 170.265 640.001 144.001 640.001Z" fill="#FF4646"/>
<path d="M195.892 539.776C189.733 536.489 182.083 538.817 178.798 544.968C166.013 568.912 154.825 580.376 149.292 585.076C143.977 589.595 143.33 597.567 147.848 602.882C150.347 605.821 153.902 607.334 157.48 607.334C160.372 607.334 163.277 606.347 165.655 604.328C174.081 597.165 187.067 583.118 201.084 556.871C204.37 550.714 202.044 543.062 195.892 539.776Z" fill="#FF4646"/>
<path d="M167.505 356.796C160.764 354.98 153.836 358.958 152.014 365.691C150.194 372.426 154.177 379.36 160.909 381.182C189.131 388.813 208.842 414.56 208.842 443.79C208.842 456.173 205.344 479.262 195.524 506.934C193.191 513.507 196.628 520.727 203.205 523.062C204.602 523.557 206.025 523.793 207.428 523.793C212.625 523.793 217.495 520.559 219.333 515.382C228.583 489.313 234.105 462.552 234.105 443.79C234.105 403.174 206.717 367.401 167.505 356.796Z" fill="#FF4646"/>
<path d="M757.652 432.46C781.332 388.12 796.633 334.391 796.633 295.579C796.633 218.035 733.546 154.947 656.002 154.947C578.458 154.947 515.37 218.035 515.37 295.579C515.37 334.391 530.672 388.12 554.351 432.46C576.961 474.796 603.769 502.359 631.663 512.584L585.983 563.337C582.645 567.047 581.803 572.37 583.831 576.928C585.861 581.484 590.383 584.418 595.372 584.418H643.37V787.366C643.37 794.344 649.024 799.997 656.002 799.997C662.98 799.997 668.633 794.344 668.633 787.366V584.422H716.633C721.622 584.422 726.144 581.486 728.174 576.931C730.203 572.373 729.36 567.05 726.024 563.34L680.344 512.587C708.236 502.359 735.044 474.796 757.652 432.46ZM688.27 559.159H623.731L656 523.304L688.27 559.159ZM656 491.79C629.734 491.79 600.806 465.828 576.633 420.56C555.098 380.24 540.631 330.012 540.631 295.58C540.631 231.966 592.384 180.211 656 180.211C719.616 180.211 771.369 231.966 771.369 295.58C771.369 330.012 756.902 380.241 735.367 420.56C711.194 465.829 682.266 491.79 656 491.79Z" fill="#FF4646"/>
<path d="M707.891 391.565C701.734 388.279 694.081 390.607 690.797 396.757C678.011 420.701 666.823 432.165 661.292 436.863C655.977 441.382 655.33 449.354 659.848 454.67C662.347 457.609 665.902 459.121 669.48 459.121C672.372 459.121 675.277 458.134 677.653 456.115C686.08 448.952 699.066 434.906 713.083 408.659C716.372 402.504 714.045 394.851 707.891 391.565Z" fill="#FF4646"/>
<path d="M679.506 208.585C672.765 206.772 665.837 210.746 664.015 217.48C662.195 224.214 666.178 231.149 672.91 232.971C701.132 240.602 720.843 266.349 720.843 295.579C720.843 307.961 717.345 331.051 707.525 358.723C705.192 365.296 708.629 372.516 715.206 374.851C716.603 375.346 718.026 375.582 719.429 375.582C724.626 375.582 729.498 372.348 731.334 367.171C740.584 341.102 746.106 314.341 746.106 295.579C746.106 254.963 718.718 219.191 679.506 208.585Z" fill="#FF4646"/>
<path d="M117.052 134.738H96.0003V113.684C96.0003 106.706 90.3472 101.053 83.369 101.053C76.3909 101.053 70.7378 106.706 70.7378 113.684V134.738H49.683C42.7049 134.738 37.0518 140.392 37.0518 147.369C37.0518 154.346 42.7065 160 49.683 160H70.7362V181.053C70.7362 188.032 76.3893 193.685 83.3675 193.685C90.3456 193.685 95.9987 188.032 95.9987 181.053V160H117.052C124.03 160 129.683 154.346 129.683 147.369C129.683 140.392 124.03 134.738 117.052 134.738Z" fill="#FF4646"/>
<path d="M514.526 559.159H493.472V538.106C493.472 531.128 487.818 525.475 480.841 525.475C473.865 525.475 468.21 531.128 468.21 538.106V559.159H447.157C440.179 559.159 434.525 564.814 434.525 571.79C434.525 578.768 440.179 584.422 447.157 584.422H468.21V605.475C468.21 612.453 473.865 618.106 480.841 618.106C487.818 618.106 493.472 612.453 493.472 605.475V584.422H514.526C521.504 584.422 527.157 578.768 527.157 571.79C527.158 564.814 521.504 559.159 514.526 559.159Z" fill="#FF4646"/>
<path d="M723.368 67.3688H702.315V46.3156C702.315 39.3375 696.66 33.6843 689.684 33.6843C682.707 33.6843 677.053 39.3375 677.053 46.3156V67.3688H655.999C649.021 67.3688 643.368 73.0235 643.368 80C643.368 86.9766 649.021 92.6313 655.999 92.6313H677.053V113.684C677.053 120.663 682.707 126.316 689.684 126.316C696.66 126.316 702.315 120.663 702.315 113.684V92.6313H723.368C730.346 92.6313 736 86.9766 736 80C736 73.0235 730.346 67.3688 723.368 67.3688Z" fill="#FF4646"/>
</g>
<defs>
<clipPath id="clip0_84_713">
<rect width="800" height="800" fill="white"/>
</clipPath>
</defs>
</svg>
